# This file uses meters as units for non-parametric coordinates.

mtllib Coin.mtl
g default
v 86.602539 50.000000 -25.000000
v 50.000000 86.602539 -25.000000
v 0.000000 100.000000 -25.000000
v -50.000000 86.602539 -25.000000
v -86.602539 50.000000 -25.000000
v -100.000000 -0.000000 -25.000000
v -86.602539 -50.000000 -25.000000
v -50.000000 -86.602539 -25.000000
v 0.000000 -100.000000 -25.000000
v 50.000000 -86.602539 -25.000000
v 86.602539 -50.000000 -25.000000
v 100.000000 -0.000000 -25.000000
v 86.602539 50.000000 25.000000
v 50.000000 86.602539 25.000000
v 0.000000 100.000000 25.000000
v -50.000000 86.602539 25.000000
v -86.602539 50.000000 25.000000
v -100.000000 0.000000 25.000000
v -86.602539 -50.000000 25.000000
v -50.000000 -86.602539 25.000000
v 0.000000 -100.000000 25.000000
v 50.000000 -86.602539 25.000000
v 86.602539 -50.000000 25.000000
v 100.000000 0.000000 25.000000
v 74.222534 42.852402 -25.000000
v 42.852402 74.222534 -25.000000
v 0.000000 85.704803 -25.000000
v -42.852402 74.222534 -25.000000
v -74.222534 42.852402 -25.000000
v -85.704803 -0.000000 -25.000000
v -74.222534 -42.852402 -25.000000
v -42.852402 -74.222534 -25.000000
v 0.000000 -85.704803 -25.000000
v 42.852402 -74.222534 -25.000000
v 74.222534 -42.852402 -25.000000
v 85.704803 -0.000000 -25.000000
v 74.222534 42.852402 25.000000
v 42.852402 74.222534 25.000000
v 0.000000 85.704803 25.000000
v -42.852402 74.222534 25.000000
v -74.222534 42.852402 25.000000
v -85.704803 0.000000 25.000000
v -74.222534 -42.852402 25.000000
v -42.852402 -74.222534 25.000000
v 0.000000 -85.704803 25.000000
v 42.852402 -74.222534 25.000000
v 74.222534 -42.852402 25.000000
v 85.704803 0.000000 25.000000
v 74.222534 42.852402 -14.999999
v 42.852402 74.222534 -14.999999
v 0.000000 -0.000000 -14.999999
v 0.000000 85.704803 -14.999999
v -42.852402 74.222534 -14.999999
v -74.222534 42.852402 -14.999999
v -85.704803 -0.000000 -14.999999
v -74.222534 -42.852402 -14.999999
v -42.852402 -74.222534 -14.999999
v 0.000000 -85.704803 -14.999999
v 42.852402 -74.222534 -14.999999
v 74.222534 -42.852402 -14.999999
v 85.704803 -0.000000 -14.999999
v 74.222534 42.852402 14.999999
v 42.852402 74.222534 14.999999
v 0.000000 0.000000 14.999999
v 0.000000 85.704803 14.999999
v -42.852402 74.222534 14.999999
v -74.222534 42.852402 14.999999
v -85.704803 0.000000 14.999999
v -74.222534 -42.852402 14.999999
v -42.852402 -74.222534 14.999999
v 0.000000 -85.704803 14.999999
v 42.852402 -74.222534 14.999999
v 74.222534 -42.852402 14.999999
v 85.704803 0.000000 14.999999
vt 0.635316 0.078125
vt 0.578125 0.020934
vt 0.500000 0.000000
vt 0.421875 0.020934
vt 0.364684 0.078125
vt 0.343750 0.156250
vt 0.364684 0.234375
vt 0.421875 0.291566
vt 0.500000 0.312500
vt 0.578125 0.291566
vt 0.635316 0.234375
vt 0.656250 0.156250
vt 0.375000 0.312500
vt 0.395833 0.312500
vt 0.416667 0.312500
vt 0.437500 0.312500
vt 0.458333 0.312500
vt 0.479167 0.312500
vt 0.500000 0.312500
vt 0.520833 0.312500
vt 0.541667 0.312500
vt 0.562500 0.312500
vt 0.583333 0.312500
vt 0.604167 0.312500
vt 0.625000 0.312500
vt 0.375000 0.688440
vt 0.395833 0.688440
vt 0.416667 0.688440
vt 0.437500 0.688440
vt 0.458333 0.688440
vt 0.479167 0.688440
vt 0.500000 0.688440
vt 0.520833 0.688440
vt 0.541667 0.688440
vt 0.562500 0.688440
vt 0.583333 0.688440
vt 0.604167 0.688440
vt 0.625000 0.688440
vt 0.635316 0.765625
vt 0.578125 0.708434
vt 0.500000 0.687500
vt 0.421875 0.708434
vt 0.364684 0.765625
vt 0.343750 0.843750
vt 0.364684 0.921875
vt 0.421875 0.979066
vt 0.500000 1.000000
vt 0.578125 0.979066
vt 0.635316 0.921875
vt 0.656250 0.843750
vt 0.500000 0.150000
vt 0.500000 0.837500
vt 0.578125 0.020934
vt 0.635316 0.078125
vt 0.500000 0.000000
vt 0.421875 0.020934
vt 0.364684 0.078125
vt 0.343750 0.156250
vt 0.364684 0.234375
vt 0.421875 0.291566
vt 0.500000 0.312500
vt 0.578125 0.291566
vt 0.635316 0.234375
vt 0.656250 0.156250
vt 0.635316 0.921875
vt 0.578125 0.979066
vt 0.500000 1.000000
vt 0.421875 0.979066
vt 0.364684 0.921875
vt 0.343750 0.843750
vt 0.364684 0.765625
vt 0.421875 0.708434
vt 0.500000 0.687500
vt 0.578125 0.708434
vt 0.635316 0.765625
vt 0.656250 0.843750
vt 0.578125 0.020934
vt 0.635316 0.078125
vt 0.500000 0.000000
vt 0.421875 0.020934
vt 0.364684 0.078125
vt 0.343750 0.156250
vt 0.364684 0.234375
vt 0.421875 0.291566
vt 0.500000 0.312500
vt 0.578125 0.291566
vt 0.635316 0.234375
vt 0.656250 0.156250
vt 0.635316 0.921875
vt 0.578125 0.979066
vt 0.500000 1.000000
vt 0.421875 0.979066
vt 0.364684 0.921875
vt 0.343750 0.843750
vt 0.364684 0.765625
vt 0.421875 0.708434
vt 0.500000 0.687500
vt 0.578125 0.708434
vt 0.635316 0.765625
vt 0.656250 0.843750
vn 0.707107 0.707107 0.000000
vn 0.707107 0.707107 0.000000
vn 0.707107 0.707107 0.000000
vn 0.707107 0.707107 0.000000
vn 0.258819 0.965926 0.000000
vn 0.258819 0.965926 0.000000
vn 0.258819 0.965926 0.000000
vn 0.258819 0.965926 0.000000
vn -0.258819 0.965926 0.000000
vn -0.258819 0.965926 0.000000
vn -0.258819 0.965926 0.000000
vn -0.258819 0.965926 0.000000
vn -0.707107 0.707107 0.000000
vn -0.707107 0.707107 0.000000
vn -0.707107 0.707107 0.000000
vn -0.707107 0.707107 0.000000
vn -0.965926 0.258819 0.000000
vn -0.965926 0.258819 0.000000
vn -0.965926 0.258819 0.000000
vn -0.965926 0.258819 0.000000
vn -0.965926 -0.258819 0.000000
vn -0.965926 -0.258819 0.000000
vn -0.965926 -0.258819 0.000000
vn -0.965926 -0.258819 0.000000
vn -0.707107 -0.707107 0.000000
vn -0.707107 -0.707107 0.000000
vn -0.707107 -0.707107 0.000000
vn -0.707107 -0.707107 0.000000
vn -0.258819 -0.965926 0.000000
vn -0.258819 -0.965926 0.000000
vn -0.258819 -0.965926 0.000000
vn -0.258819 -0.965926 0.000000
vn 0.258819 -0.965926 0.000000
vn 0.258819 -0.965926 0.000000
vn 0.258819 -0.965926 0.000000
vn 0.258819 -0.965926 0.000000
vn 0.707107 -0.707107 0.000000
vn 0.707107 -0.707107 0.000000
vn 0.707107 -0.707107 0.000000
vn 0.707107 -0.707107 0.000000
vn 0.965926 -0.258819 0.000000
vn 0.965926 -0.258819 0.000000
vn 0.965926 -0.258819 0.000000
vn 0.965926 -0.258819 0.000000
vn 0.965926 0.258819 0.000000
vn 0.965926 0.258819 0.000000
vn 0.965926 0.258819 0.000000
vn 0.965926 0.258819 0.000000
vn -0.000000 0.000000 -1.000000
vn -0.000000 0.000000 -1.000000
vn -0.000000 0.000000 -1.000000
vn -0.000000 0.000000 -1.000000
vn -0.000000 0.000000 -1.000000
vn -0.000000 0.000000 -1.000000
vn 0.000000 0.000000 -1.000000
vn 0.000000 0.000000 -1.000000
vn 0.000000 0.000000 -1.000000
vn 0.000000 0.000000 -1.000000
vn 0.000000 0.000000 -1.000000
vn 0.000000 0.000000 -1.000000
vn 0.000000 0.000000 -1.000000
vn 0.000000 0.000000 1.000000
vn 0.000000 0.000000 1.000000
vn 0.000000 0.000000 1.000000
vn 0.000000 0.000000 1.000000
vn 0.000000 0.000000 1.000000
vn 0.000000 0.000000 1.000000
vn 0.000000 0.000000 1.000000
vn 0.000000 0.000000 1.000000
vn 0.000000 0.000000 1.000000
vn 0.000000 0.000000 1.000000
vn 0.000000 0.000000 1.000000
vn 0.000000 0.000000 1.000000
vn 0.000000 0.000000 1.000000
vn 0.000000 0.000000 -1.000000
vn 0.000000 0.000000 -1.000000
vn 0.000000 0.000000 -1.000000
vn 0.000000 0.000000 -1.000000
vn 0.000000 0.000000 -1.000000
vn 0.000000 0.000000 -1.000000
vn 0.000000 0.000000 -1.000000
vn 0.000000 0.000000 -1.000000
vn 0.000000 0.000000 -1.000000
vn 0.000000 0.000000 -1.000000
vn 0.000000 0.000000 -1.000000
vn 0.000000 0.000000 -1.000000
vn 0.000000 0.000000 -1.000000
vn 0.000000 0.000000 -1.000000
vn 0.000000 0.000000 -1.000000
vn 0.000000 0.000000 -1.000000
vn 0.000000 0.000000 -1.000000
vn 0.000000 0.000000 -1.000000
vn 0.000000 0.000000 -1.000000
vn 0.000000 0.000000 -1.000000
vn -0.000000 0.000000 -1.000000
vn -0.000000 0.000000 -1.000000
vn -0.000000 0.000000 -1.000000
vn -0.000000 0.000000 -1.000000
vn 0.000000 0.000000 -1.000000
vn 0.000000 0.000000 -1.000000
vn 0.000000 0.000000 -1.000000
vn 0.000000 0.000000 -1.000000
vn 0.000000 0.000000 -1.000000
vn 0.000000 0.000000 -1.000000
vn 0.000000 0.000000 -1.000000
vn 0.000000 0.000000 -1.000000
vn 0.000000 0.000000 -1.000000
vn 0.000000 0.000000 -1.000000
vn 0.000000 0.000000 -1.000000
vn 0.000000 0.000000 -1.000000
vn -0.000000 0.000000 -1.000000
vn -0.000000 0.000000 -1.000000
vn -0.000000 0.000000 -1.000000
vn -0.000000 0.000000 -1.000000
vn 0.000000 0.000000 -1.000000
vn 0.000000 0.000000 -1.000000
vn 0.000000 0.000000 -1.000000
vn 0.000000 0.000000 -1.000000
vn 0.000000 0.000000 -1.000000
vn 0.000000 0.000000 -1.000000
vn 0.000000 0.000000 -1.000000
vn 0.000000 0.000000 -1.000000
vn -0.000000 0.000000 1.000000
vn -0.000000 0.000000 1.000000
vn -0.000000 0.000000 1.000000
vn -0.000000 0.000000 1.000000
vn 0.000000 0.000000 1.000000
vn 0.000000 0.000000 1.000000
vn 0.000000 0.000000 1.000000
vn 0.000000 0.000000 1.000000
vn 0.000000 0.000000 1.000000
vn 0.000000 0.000000 1.000000
vn 0.000000 0.000000 1.000000
vn 0.000000 0.000000 1.000000
vn 0.000000 0.000000 1.000000
vn 0.000000 0.000000 1.000000
vn 0.000000 0.000000 1.000000
vn 0.000000 0.000000 1.000000
vn -0.000000 0.000000 1.000000
vn -0.000000 0.000000 1.000000
vn -0.000000 0.000000 1.000000
vn -0.000000 0.000000 1.000000
vn 0.000000 0.000000 1.000000
vn 0.000000 0.000000 1.000000
vn 0.000000 0.000000 1.000000
vn 0.000000 0.000000 1.000000
vn 0.000000 0.000000 1.000000
vn 0.000000 0.000000 1.000000
vn 0.000000 0.000000 1.000000
vn 0.000000 0.000000 1.000000
vn 0.000000 0.000000 1.000000
vn 0.000000 0.000000 1.000000
vn 0.000000 0.000000 1.000000
vn 0.000000 0.000000 1.000000
vn 0.000000 0.000000 1.000000
vn 0.000000 0.000000 1.000000
vn 0.000000 0.000000 1.000000
vn 0.000000 0.000000 1.000000
vn 0.000000 0.000000 1.000000
vn 0.000000 0.000000 1.000000
vn 0.000000 0.000000 1.000000
vn 0.000000 0.000000 1.000000
vn 0.000000 0.000000 1.000000
vn 0.000000 0.000000 1.000000
vn 0.000000 0.000000 1.000000
vn 0.000000 0.000000 1.000000
vn 0.000000 0.000000 1.000000
vn 0.000000 0.000000 1.000000
vn 0.000000 0.000000 1.000000
vn 0.000000 0.000000 1.000000
vn -0.707107 -0.707107 0.000000
vn -0.707107 -0.707107 0.000000
vn -0.707107 -0.707107 0.000000
vn -0.707107 -0.707107 0.000000
vn -0.258819 -0.965926 0.000000
vn -0.258819 -0.965926 0.000000
vn -0.258819 -0.965926 0.000000
vn -0.258819 -0.965926 0.000000
vn 0.258819 -0.965926 0.000000
vn 0.258819 -0.965926 0.000000
vn 0.258819 -0.965926 0.000000
vn 0.258819 -0.965926 0.000000
vn 0.707107 -0.707107 0.000000
vn 0.707107 -0.707107 0.000000
vn 0.707107 -0.707107 0.000000
vn 0.707107 -0.707107 0.000000
vn 0.965926 -0.258819 0.000000
vn 0.965926 -0.258819 0.000000
vn 0.965926 -0.258819 0.000000
vn 0.965926 -0.258819 0.000000
vn 0.965926 0.258819 0.000000
vn 0.965926 0.258819 0.000000
vn 0.965926 0.258819 0.000000
vn 0.965926 0.258819 0.000000
vn 0.707107 0.707107 0.000000
vn 0.707107 0.707107 0.000000
vn 0.707107 0.707107 0.000000
vn 0.707107 0.707107 0.000000
vn 0.258819 0.965926 0.000000
vn 0.258819 0.965926 0.000000
vn 0.258819 0.965926 0.000000
vn 0.258819 0.965926 0.000000
vn -0.258819 0.965926 0.000000
vn -0.258819 0.965926 0.000000
vn -0.258819 0.965926 0.000000
vn -0.258819 0.965926 0.000000
vn -0.707107 0.707107 0.000000
vn -0.707107 0.707107 0.000000
vn -0.707107 0.707107 0.000000
vn -0.707107 0.707107 0.000000
vn -0.965926 0.258819 0.000000
vn -0.965926 0.258819 0.000000
vn -0.965926 0.258819 0.000000
vn -0.965926 0.258819 0.000000
vn -0.965926 -0.258819 0.000000
vn -0.965926 -0.258819 0.000000
vn -0.965926 -0.258819 0.000000
vn -0.965926 -0.258819 0.000000
vn -0.707107 -0.707107 0.000000
vn -0.707107 -0.707107 0.000000
vn -0.707107 -0.707107 0.000000
vn -0.707107 -0.707107 0.000000
vn -0.258819 -0.965926 0.000000
vn -0.258819 -0.965926 0.000000
vn -0.258819 -0.965926 0.000000
vn -0.258819 -0.965926 0.000000
vn 0.258819 -0.965926 0.000000
vn 0.258819 -0.965926 0.000000
vn 0.258819 -0.965926 0.000000
vn 0.258819 -0.965926 0.000000
vn 0.707107 -0.707107 0.000000
vn 0.707107 -0.707107 0.000000
vn 0.707107 -0.707107 0.000000
vn 0.707107 -0.707107 0.000000
vn 0.965926 -0.258819 0.000000
vn 0.965926 -0.258819 0.000000
vn 0.965926 -0.258819 0.000000
vn 0.965926 -0.258819 0.000000
vn 0.965926 0.258819 0.000000
vn 0.965926 0.258819 0.000000
vn 0.965926 0.258819 0.000000
vn 0.965926 0.258819 0.000000
vn 0.707107 0.707107 0.000000
vn 0.707107 0.707107 0.000000
vn 0.707107 0.707107 0.000000
vn 0.707107 0.707107 0.000000
vn 0.258819 0.965926 0.000000
vn 0.258819 0.965926 0.000000
vn 0.258819 0.965926 0.000000
vn 0.258819 0.965926 0.000000
vn -0.258819 0.965926 0.000000
vn -0.258819 0.965926 0.000000
vn -0.258819 0.965926 0.000000
vn -0.258819 0.965926 0.000000
vn -0.707107 0.707107 0.000000
vn -0.707107 0.707107 0.000000
vn -0.707107 0.707107 0.000000
vn -0.707107 0.707107 0.000000
vn -0.965926 0.258819 0.000000
vn -0.965926 0.258819 0.000000
vn -0.965926 0.258819 0.000000
vn -0.965926 0.258819 0.000000
vn -0.965926 -0.258819 0.000000
vn -0.965926 -0.258819 0.000000
vn -0.965926 -0.258819 0.000000
vn -0.965926 -0.258819 0.000000
s off
g Coin_01
usemtl initialShadingGroup
f 1/13/1 2/14/2 14/27/3 13/26/4
f 2/14/5 3/15/6 15/28/7 14/27/8
f 3/15/9 4/16/10 16/29/11 15/28/12
f 4/16/13 5/17/14 17/30/15 16/29/16
f 5/17/17 6/18/18 18/31/19 17/30/20
f 6/18/21 7/19/22 19/32/23 18/31/24
f 7/19/25 8/20/26 20/33/27 19/32/28
f 8/20/29 9/21/30 21/34/31 20/33/32
f 9/21/33 10/22/34 22/35/35 21/34/36
f 10/22/37 11/23/38 23/36/39 22/35/40
f 11/23/41 12/24/42 24/37/43 23/36/44
f 12/24/45 1/25/46 13/38/47 24/37/48
s 1
f 50/77/49 49/78/50 51/51/51 52/79/52
f 53/80/53 52/79/52 51/51/51 54/81/54
f 55/82/55 54/81/54 51/51/51 56/83/56
f 57/84/57 56/83/56 51/51/51 58/85/58
f 59/86/59 58/85/58 51/51/51 60/87/60
f 61/88/61 60/87/60 51/51/51 49/78/50
s 2
f 64/52/62 62/89/63 63/90/64 65/91/65
f 64/52/62 65/91/65 66/92/66 67/93/67
f 64/52/62 67/93/67 68/94/68 69/95/69
f 64/52/62 69/95/69 70/96/70 71/97/71
f 64/52/62 71/97/71 72/98/72 73/99/73
f 64/52/62 73/99/73 74/100/74 62/89/63
s off
f 2/2/75 1/1/76 25/54/77 26/53/78
f 3/3/79 2/2/80 26/53/81 27/55/82
f 4/4/83 3/3/84 27/55/85 28/56/86
f 5/5/87 4/4/88 28/56/89 29/57/90
f 6/6/91 5/5/92 29/57/93 30/58/94
f 7/7/95 6/6/96 30/58/97 31/59/98
f 8/8/99 7/7/100 31/59/101 32/60/102
f 9/9/103 8/8/104 32/60/105 33/61/106
f 10/10/107 9/9/108 33/61/109 34/62/110
f 11/11/111 10/10/112 34/62/113 35/63/114
f 12/12/115 11/11/116 35/63/117 36/64/118
f 1/1/119 12/12/120 36/64/121 25/54/122
f 13/49/123 14/48/124 38/66/125 37/65/126
f 14/48/127 15/47/128 39/67/129 38/66/130
f 15/47/131 16/46/132 40/68/133 39/67/134
f 16/46/135 17/45/136 41/69/137 40/68/138
f 17/45/139 18/44/140 42/70/141 41/69/142
f 18/44/143 19/43/144 43/71/145 42/70/146
f 19/43/147 20/42/148 44/72/149 43/71/150
f 20/42/151 21/41/152 45/73/153 44/72/154
f 21/41/155 22/40/156 46/74/157 45/73/158
f 22/40/159 23/39/160 47/75/161 46/74/162
f 23/39/163 24/50/164 48/76/165 47/75/166
f 24/50/167 13/49/168 37/65/169 48/76/170
f 26/53/171 25/54/172 49/78/173 50/77/174
f 27/55/175 26/53/176 50/77/177 52/79/178
f 28/56/179 27/55/180 52/79/181 53/80/182
f 29/57/183 28/56/184 53/80/185 54/81/186
f 30/58/187 29/57/188 54/81/189 55/82/190
f 31/59/191 30/58/192 55/82/193 56/83/194
f 32/60/195 31/59/196 56/83/197 57/84/198
f 33/61/199 32/60/200 57/84/201 58/85/202
f 34/62/203 33/61/204 58/85/205 59/86/206
f 35/63/207 34/62/208 59/86/209 60/87/210
f 36/64/211 35/63/212 60/87/213 61/88/214
f 25/54/215 36/64/216 61/88/217 49/78/218
f 37/65/219 38/66/220 63/90/221 62/89/222
f 38/66/223 39/67/224 65/91/225 63/90/226
f 39/67/227 40/68/228 66/92/229 65/91/230
f 40/68/231 41/69/232 67/93/233 66/92/234
f 41/69/235 42/70/236 68/94/237 67/93/238
f 42/70/239 43/71/240 69/95/241 68/94/242
f 43/71/243 44/72/244 70/96/245 69/95/246
f 44/72/247 45/73/248 71/97/249 70/96/250
f 45/73/251 46/74/252 72/98/253 71/97/254
f 46/74/255 47/75/256 73/99/257 72/98/258
f 47/75/259 48/76/260 74/100/261 73/99/262
f 48/76/263 37/65/264 62/89/265 74/100/266
