# This file uses meters as units for non-parametric coordinates.

mtllib Tree.mtl
g default
v 77.697639 455.177856 -44.858749
v 44.858749 455.177856 -77.697639
v 0.000000 455.177856 -89.717499
v -44.858749 455.177856 -77.697639
v -77.697639 455.177856 -44.858749
v -89.717499 455.177856 0.000000
v -77.697639 455.177856 44.858749
v -44.858749 455.177856 77.697639
v 0.000000 455.177856 89.717499
v 44.858749 455.177856 77.697639
v 77.697639 455.177856 44.858749
v 89.717499 455.177856 0.000000
v 0.000000 564.394348 0.000000
v 150.752487 359.337463 0.000000
v 130.555542 359.337463 -75.376244
v 130.555542 359.337463 75.376244
v 75.376244 359.337463 130.555542
v 0.000000 359.337463 150.752487
v -75.376244 359.337463 130.555542
v -130.555542 359.337463 75.376244
v -150.752487 359.337463 0.000000
v -130.555542 359.337463 -75.376244
v -75.376244 359.337463 -130.555542
v 0.000000 359.337463 -150.752487
v 75.376244 359.337463 -130.555542
v 216.461044 250.766861 0.000000
v 187.460770 250.766861 -108.230522
v 187.460770 250.766861 108.230522
v 108.230522 250.766861 187.460770
v 0.000000 250.766861 216.461044
v -108.230522 250.766861 187.460770
v -187.460770 250.766861 108.230522
v -216.461044 250.766861 0.000000
v -187.460770 250.766861 -108.230522
v -108.230522 250.766861 -187.460770
v 0.000000 250.766861 -216.461044
v 108.230522 250.766861 -187.460770
v 237.768509 151.512497 0.000000
v 205.913605 151.512497 -118.884254
v 205.913605 151.512497 118.884254
v 118.884254 151.512497 205.913605
v 0.000000 151.512497 237.768509
v -118.884254 151.512497 205.913605
v -205.913605 151.512497 118.884254
v -237.768509 151.512497 0.000000
v -205.913605 151.512497 -118.884254
v -118.884254 151.512497 -205.913605
v 0.000000 151.512497 -237.768509
v 118.884254 151.512497 -205.913605
v 216.461044 104.850723 0.000000
v 187.460770 104.850723 -108.230522
v 187.460770 104.850723 108.230522
v 108.230522 104.850723 187.460770
v 0.000000 104.850723 216.461044
v -108.230522 104.850723 187.460770
v -187.460770 104.850723 108.230522
v -216.461044 104.850723 0.000000
v -187.460770 104.850723 -108.230522
v -108.230522 104.850723 -187.460770
v 0.000000 104.850723 -216.461044
v 108.230522 104.850723 -187.460770
v 51.222218 84.647850 0.000000
v 44.359753 84.647850 -25.611109
v 44.359753 84.647850 25.611109
v 25.611109 84.647850 44.359753
v 0.000000 84.647850 51.222218
v -25.611109 84.647850 44.359753
v -44.359753 84.647850 25.611109
v -51.222218 84.647850 0.000000
v -44.359753 84.647850 -25.611109
v -25.611109 84.647850 -44.359753
v 0.000000 84.647850 -51.222218
v 25.611109 84.647850 -44.359753
v 51.222218 -5.411053 0.000000
v 44.359753 -5.411053 -25.611109
v 44.359753 -5.411053 25.611109
v 25.611109 -5.411053 44.359753
v 0.000000 -5.411053 51.222218
v -25.611109 -5.411053 44.359753
v -44.359753 -5.411053 25.611109
v -51.222218 -5.411053 0.000000
v -44.359753 -5.411053 -25.611109
v -25.611109 -5.411053 -44.359753
v 0.000000 -5.411053 -51.222218
v 25.611109 -5.411053 -44.359753
v 158.602295 70.568802 0.000000
v 137.353638 70.568802 -79.301147
v 37.530827 70.568802 0.000000
v 32.502659 70.568802 -18.765413
v 137.353638 70.568802 79.301147
v 32.502659 70.568802 18.765413
v 79.301147 70.568802 137.353638
v 18.765413 70.568802 32.502659
v 0.000000 70.568802 158.602295
v 0.000000 70.568802 37.530827
v -79.301147 70.568802 137.353638
v -18.765413 70.568802 32.502659
v -137.353638 70.568802 79.301147
v -32.502659 70.568802 18.765413
v -158.602295 70.568802 0.000000
v -37.530827 70.568802 0.000000
v -137.353638 70.568802 -79.301147
v -32.502659 70.568802 -18.765413
v -79.301147 70.568802 -137.353638
v -18.765413 70.568802 -32.502659
v 0.000000 70.568802 -158.602295
v 0.000000 70.568802 -37.530827
v 79.301147 70.568802 -137.353638
v 18.765413 70.568802 -32.502659
v -0.000001 -5.411053 0.000000
vt 0.716506 0.125000
vt 0.625000 0.033494
vt 0.500000 0.000000
vt 0.375000 0.033494
vt 0.283494 0.125000
vt 0.250000 0.250000
vt 0.283494 0.375000
vt 0.375000 0.466506
vt 0.500000 0.500000
vt 0.625000 0.466506
vt 0.716506 0.375000
vt 0.750000 0.250000
vt 0.250000 0.500000
vt 0.291667 0.500000
vt 0.333333 0.500000
vt 0.375000 0.500000
vt 0.416667 0.500000
vt 0.458333 0.500000
vt 0.500000 0.500000
vt 0.541667 0.500000
vt 0.583333 0.500000
vt 0.625000 0.500000
vt 0.666667 0.500000
vt 0.708333 0.500000
vt 0.750000 0.500000
vt 0.500000 1.000000
vt 0.716506 0.125000
vt 0.750000 0.250000
vt 0.716506 0.375000
vt 0.625000 0.466506
vt 0.500000 0.500000
vt 0.375000 0.466506
vt 0.283494 0.375000
vt 0.250000 0.250000
vt 0.283494 0.125000
vt 0.375000 0.033494
vt 0.500000 0.000000
vt 0.625000 0.033494
vt 0.716506 0.125000
vt 0.750000 0.250000
vt 0.716506 0.375000
vt 0.625000 0.466506
vt 0.500000 0.500000
vt 0.375000 0.466506
vt 0.283494 0.375000
vt 0.250000 0.250000
vt 0.283494 0.125000
vt 0.375000 0.033494
vt 0.500000 0.000000
vt 0.625000 0.033494
vt 0.716506 0.125000
vt 0.750000 0.250000
vt 0.716506 0.375000
vt 0.625000 0.466506
vt 0.500000 0.500000
vt 0.375000 0.466506
vt 0.283494 0.375000
vt 0.250000 0.250000
vt 0.283494 0.125000
vt 0.375000 0.033494
vt 0.500000 0.000000
vt 0.625000 0.033494
vt 0.716506 0.125000
vt 0.750000 0.250000
vt 0.716506 0.375000
vt 0.625000 0.466506
vt 0.500000 0.500000
vt 0.375000 0.466506
vt 0.283494 0.375000
vt 0.250000 0.250000
vt 0.283494 0.125000
vt 0.375000 0.033494
vt 0.500000 0.000000
vt 0.625000 0.033494
vt 0.716506 0.125000
vt 0.750000 0.250000
vt 0.716506 0.375000
vt 0.625000 0.466506
vt 0.500000 0.500000
vt 0.375000 0.466506
vt 0.283494 0.375000
vt 0.250000 0.250000
vt 0.283494 0.125000
vt 0.375000 0.033494
vt 0.500000 0.000000
vt 0.625000 0.033494
vt 0.716506 0.125000
vt 0.750000 0.250000
vt 0.716506 0.375000
vt 0.625000 0.466506
vt 0.500000 0.500000
vt 0.375000 0.466506
vt 0.283494 0.375000
vt 0.250000 0.250000
vt 0.283494 0.125000
vt 0.375000 0.033494
vt 0.500000 0.000000
vt 0.625000 0.033494
vt 0.716506 0.125000
vt 0.750000 0.250000
vt 0.750000 0.250000
vt 0.716506 0.125000
vt 0.716506 0.375000
vt 0.716506 0.375000
vt 0.625000 0.466506
vt 0.625000 0.466506
vt 0.500000 0.500000
vt 0.500000 0.500000
vt 0.375000 0.466506
vt 0.375000 0.466506
vt 0.283494 0.375000
vt 0.283494 0.375000
vt 0.250000 0.250000
vt 0.250000 0.250000
vt 0.283494 0.125000
vt 0.283494 0.125000
vt 0.375000 0.033494
vt 0.375000 0.033494
vt 0.500000 0.000000
vt 0.500000 0.000000
vt 0.625000 0.033494
vt 0.625000 0.033494
vt 0.500000 0.250000
vn 0.000000 -1.000000 -0.000000
vn 0.000000 -1.000000 -0.000000
vn 0.000000 -1.000000 -0.000000
vn 0.000000 -1.000000 -0.000000
vn 0.553917 0.621573 -0.553916
vn 0.553917 0.621573 -0.553916
vn 0.553917 0.621573 -0.553917
vn 0.202748 0.621573 -0.756664
vn 0.202748 0.621573 -0.756664
vn 0.202748 0.621573 -0.756664
vn -0.202748 0.621573 -0.756664
vn -0.202748 0.621573 -0.756664
vn -0.202748 0.621573 -0.756664
vn -0.553917 0.621573 -0.553916
vn -0.553917 0.621573 -0.553916
vn -0.553917 0.621573 -0.553917
vn -0.756664 0.621573 -0.202748
vn -0.756664 0.621573 -0.202748
vn -0.756664 0.621573 -0.202748
vn -0.756664 0.621573 0.202747
vn -0.756664 0.621573 0.202747
vn -0.756664 0.621573 0.202747
vn -0.553917 0.621573 0.553916
vn -0.553917 0.621573 0.553916
vn -0.553917 0.621573 0.553917
vn -0.202748 0.621573 0.756664
vn -0.202748 0.621573 0.756664
vn -0.202748 0.621573 0.756664
vn 0.202748 0.621573 0.756664
vn 0.202748 0.621573 0.756664
vn 0.202748 0.621573 0.756664
vn 0.553917 0.621573 0.553916
vn 0.553917 0.621573 0.553916
vn 0.553917 0.621573 0.553917
vn 0.756664 0.621573 0.202748
vn 0.756664 0.621573 0.202748
vn 0.756664 0.621573 0.202748
vn 0.756664 0.621573 -0.202747
vn 0.756664 0.621573 -0.202747
vn 0.756664 0.621573 -0.202747
vn 0.822729 0.523947 -0.220449
vn 0.822729 0.523947 -0.220449
vn 0.822728 0.523947 -0.220449
vn 0.822729 0.523947 -0.220449
vn 0.822729 0.523947 0.220449
vn 0.822729 0.523947 0.220449
vn 0.822729 0.523947 0.220449
vn 0.822728 0.523947 0.220449
vn 0.602279 0.523947 0.602279
vn 0.602279 0.523947 0.602279
vn 0.602279 0.523947 0.602279
vn 0.602279 0.523947 0.602279
vn 0.220449 0.523947 0.822729
vn 0.220449 0.523947 0.822729
vn 0.220449 0.523947 0.822729
vn 0.220449 0.523947 0.822729
vn -0.220449 0.523947 0.822728
vn -0.220449 0.523947 0.822728
vn -0.220449 0.523947 0.822729
vn -0.220449 0.523947 0.822729
vn -0.602279 0.523947 0.602279
vn -0.602279 0.523947 0.602279
vn -0.602279 0.523947 0.602279
vn -0.602279 0.523947 0.602279
vn -0.822729 0.523947 0.220449
vn -0.822729 0.523947 0.220449
vn -0.822728 0.523947 0.220449
vn -0.822729 0.523947 0.220449
vn -0.822729 0.523947 -0.220449
vn -0.822729 0.523947 -0.220449
vn -0.822729 0.523947 -0.220449
vn -0.822728 0.523947 -0.220449
vn -0.602279 0.523947 -0.602279
vn -0.602279 0.523947 -0.602279
vn -0.602279 0.523947 -0.602279
vn -0.602279 0.523947 -0.602279
vn -0.220449 0.523947 -0.822729
vn -0.220449 0.523947 -0.822729
vn -0.220449 0.523947 -0.822729
vn -0.220449 0.523947 -0.822729
vn 0.220449 0.523947 -0.822728
vn 0.220449 0.523947 -0.822728
vn 0.220449 0.523947 -0.822729
vn 0.220449 0.523947 -0.822729
vn 0.602279 0.523947 -0.602279
vn 0.602279 0.523947 -0.602279
vn 0.602279 0.523947 -0.602279
vn 0.602279 0.523947 -0.602279
vn 0.833889 0.504682 -0.223440
vn 0.833889 0.504682 -0.223440
vn 0.833889 0.504682 -0.223440
vn 0.833889 0.504682 -0.223440
vn 0.833889 0.504682 0.223440
vn 0.833889 0.504682 0.223440
vn 0.833889 0.504682 0.223440
vn 0.833889 0.504682 0.223440
vn 0.610449 0.504682 0.610449
vn 0.610449 0.504682 0.610449
vn 0.610449 0.504682 0.610449
vn 0.610449 0.504682 0.610449
vn 0.223440 0.504682 0.833889
vn 0.223440 0.504682 0.833889
vn 0.223440 0.504682 0.833889
vn 0.223440 0.504682 0.833889
vn -0.223440 0.504682 0.833889
vn -0.223440 0.504682 0.833889
vn -0.223440 0.504682 0.833889
vn -0.223440 0.504682 0.833889
vn -0.610449 0.504682 0.610449
vn -0.610449 0.504682 0.610449
vn -0.610449 0.504682 0.610449
vn -0.610449 0.504682 0.610449
vn -0.833889 0.504682 0.223440
vn -0.833889 0.504682 0.223440
vn -0.833889 0.504682 0.223440
vn -0.833889 0.504682 0.223440
vn -0.833889 0.504682 -0.223440
vn -0.833889 0.504682 -0.223440
vn -0.833889 0.504682 -0.223440
vn -0.833889 0.504682 -0.223440
vn -0.610449 0.504682 -0.610449
vn -0.610449 0.504682 -0.610449
vn -0.610449 0.504682 -0.610449
vn -0.610449 0.504682 -0.610449
vn -0.223440 0.504682 -0.833889
vn -0.223440 0.504682 -0.833889
vn -0.223440 0.504682 -0.833889
vn -0.223440 0.504682 -0.833889
vn 0.223440 0.504682 -0.833889
vn 0.223440 0.504682 -0.833889
vn 0.223440 0.504682 -0.833889
vn 0.223440 0.504682 -0.833889
vn 0.610449 0.504682 -0.610449
vn 0.610449 0.504682 -0.610449
vn 0.610449 0.504682 -0.610449
vn 0.610449 0.504682 -0.610449
vn 0.945806 0.203042 -0.253428
vn 0.945806 0.203041 -0.253428
vn 0.945806 0.203041 -0.253428
vn 0.945806 0.203041 -0.253428
vn 0.945806 0.203041 0.253428
vn 0.945806 0.203041 0.253428
vn 0.945806 0.203041 0.253428
vn 0.945806 0.203041 0.253428
vn 0.692378 0.203041 0.692378
vn 0.692378 0.203041 0.692378
vn 0.692378 0.203041 0.692378
vn 0.692378 0.203041 0.692378
vn 0.253428 0.203041 0.945806
vn 0.253428 0.203041 0.945806
vn 0.253428 0.203041 0.945806
vn 0.253428 0.203041 0.945806
vn -0.253428 0.203041 0.945806
vn -0.253428 0.203041 0.945806
vn -0.253428 0.203041 0.945806
vn -0.253428 0.203041 0.945806
vn -0.692378 0.203041 0.692378
vn -0.692378 0.203041 0.692378
vn -0.692378 0.203041 0.692378
vn -0.692378 0.203041 0.692378
vn -0.945806 0.203042 0.253428
vn -0.945806 0.203041 0.253428
vn -0.945806 0.203041 0.253428
vn -0.945806 0.203041 0.253428
vn -0.945806 0.203041 -0.253428
vn -0.945806 0.203041 -0.253428
vn -0.945806 0.203041 -0.253428
vn -0.945806 0.203041 -0.253428
vn -0.692378 0.203041 -0.692378
vn -0.692378 0.203041 -0.692378
vn -0.692378 0.203041 -0.692378
vn -0.692378 0.203041 -0.692378
vn -0.253428 0.203041 -0.945806
vn -0.253428 0.203041 -0.945806
vn -0.253428 0.203041 -0.945806
vn -0.253428 0.203041 -0.945806
vn 0.253428 0.203041 -0.945806
vn 0.253428 0.203041 -0.945806
vn 0.253428 0.203041 -0.945806
vn 0.253428 0.203041 -0.945806
vn 0.692378 0.203041 -0.692378
vn 0.692378 0.203041 -0.692378
vn 0.692378 0.203041 -0.692378
vn 0.692378 0.203041 -0.692378
vn 0.883775 -0.403564 -0.236807
vn 0.883775 -0.403564 -0.236807
vn 0.883775 -0.403564 -0.236807
vn 0.883775 -0.403564 -0.236807
vn 0.883775 -0.403564 0.236807
vn 0.883775 -0.403564 0.236807
vn 0.883775 -0.403564 0.236807
vn 0.883775 -0.403564 0.236807
vn 0.646968 -0.403564 0.646968
vn 0.646968 -0.403564 0.646968
vn 0.646968 -0.403564 0.646968
vn 0.646968 -0.403564 0.646968
vn 0.236807 -0.403564 0.883775
vn 0.236807 -0.403564 0.883775
vn 0.236807 -0.403564 0.883775
vn 0.236807 -0.403564 0.883775
vn -0.236807 -0.403564 0.883775
vn -0.236807 -0.403564 0.883775
vn -0.236807 -0.403564 0.883775
vn -0.236807 -0.403564 0.883775
vn -0.646968 -0.403564 0.646968
vn -0.646968 -0.403564 0.646968
vn -0.646968 -0.403564 0.646968
vn -0.646968 -0.403564 0.646968
vn -0.883775 -0.403564 0.236807
vn -0.883775 -0.403564 0.236807
vn -0.883775 -0.403564 0.236807
vn -0.883775 -0.403564 0.236807
vn -0.883775 -0.403564 -0.236807
vn -0.883775 -0.403564 -0.236807
vn -0.883775 -0.403564 -0.236807
vn -0.883775 -0.403564 -0.236807
vn -0.646968 -0.403564 -0.646968
vn -0.646968 -0.403564 -0.646968
vn -0.646968 -0.403564 -0.646968
vn -0.646968 -0.403564 -0.646968
vn -0.236807 -0.403564 -0.883775
vn -0.236807 -0.403564 -0.883775
vn -0.236807 -0.403564 -0.883775
vn -0.236807 -0.403564 -0.883775
vn 0.236807 -0.403564 -0.883775
vn 0.236807 -0.403564 -0.883775
vn 0.236807 -0.403564 -0.883775
vn 0.236807 -0.403564 -0.883775
vn 0.646968 -0.403564 -0.646968
vn 0.646968 -0.403564 -0.646968
vn 0.646968 -0.403564 -0.646968
vn 0.646968 -0.403564 -0.646968
vn 0.000000 -1.000000 0.000000
vn 0.000000 -1.000000 0.000000
vn 0.000000 -1.000000 0.000000
vn 0.000000 -1.000000 0.000000
vn 0.000000 -1.000000 -0.000000
vn 0.000000 -1.000000 -0.000000
vn 0.000000 -1.000000 -0.000000
vn 0.000000 -1.000000 -0.000000
vn 0.000000 -1.000000 0.000000
vn 0.000000 -1.000000 0.000000
vn 0.000000 -1.000000 0.000000
vn 0.000000 -1.000000 0.000000
vn 0.000000 -1.000000 0.000000
vn 0.000000 -1.000000 0.000000
vn 0.000000 -1.000000 0.000000
vn 0.000000 -1.000000 0.000000
vn 0.000000 -1.000000 -0.000000
vn 0.000000 -1.000000 -0.000000
vn 0.000000 -1.000000 -0.000000
vn 0.000000 -1.000000 -0.000000
vn 0.000000 -1.000000 0.000000
vn 0.000000 -1.000000 0.000000
vn 0.000000 -1.000000 0.000000
vn 0.000000 -1.000000 0.000000
vn 0.000000 -1.000000 -0.000000
vn 0.000000 -1.000000 -0.000000
vn 0.000000 -1.000000 -0.000000
vn 0.000000 -1.000000 -0.000000
vn 0.000000 -1.000000 0.000000
vn 0.000000 -1.000000 0.000000
vn 0.000000 -1.000000 0.000000
vn 0.000000 -1.000000 0.000000
vn 0.000000 -1.000000 0.000000
vn 0.000000 -1.000000 0.000000
vn 0.000000 -1.000000 0.000000
vn 0.000000 -1.000000 0.000000
vn 0.000000 -1.000000 0.000000
vn 0.000000 -1.000000 0.000000
vn 0.000000 -1.000000 0.000000
vn 0.000000 -1.000000 0.000000
vn 0.000000 -1.000000 0.000000
vn 0.000000 -1.000000 0.000000
vn 0.000000 -1.000000 0.000000
vn 0.000000 -1.000000 0.000000
vn 0.000000 -1.000000 -0.000000
vn 0.000000 -1.000000 -0.000000
vn 0.000000 -1.000000 -0.000000
vn 0.000000 -1.000000 -0.000000
vn 0.965926 0.000000 -0.258819
vn 0.965926 0.000000 -0.258819
vn 0.965926 0.000000 -0.258819
vn 0.965926 0.000000 -0.258819
vn 0.965926 0.000000 0.258819
vn 0.965926 0.000000 0.258819
vn 0.965926 0.000000 0.258819
vn 0.965926 0.000000 0.258819
vn 0.707107 0.000000 0.707107
vn 0.707107 0.000000 0.707107
vn 0.707107 0.000000 0.707107
vn 0.707107 0.000000 0.707107
vn 0.258819 0.000000 0.965926
vn 0.258819 0.000000 0.965926
vn 0.258819 0.000000 0.965926
vn 0.258819 0.000000 0.965926
vn -0.258819 0.000000 0.965926
vn -0.258819 0.000000 0.965926
vn -0.258819 0.000000 0.965926
vn -0.258819 0.000000 0.965926
vn -0.707107 0.000000 0.707107
vn -0.707107 0.000000 0.707107
vn -0.707107 0.000000 0.707107
vn -0.707107 0.000000 0.707107
vn -0.965926 0.000000 0.258819
vn -0.965926 0.000000 0.258819
vn -0.965926 0.000000 0.258819
vn -0.965926 0.000000 0.258819
vn -0.965926 0.000000 -0.258819
vn -0.965926 0.000000 -0.258819
vn -0.965926 0.000000 -0.258819
vn -0.965926 0.000000 -0.258819
vn -0.707107 0.000000 -0.707107
vn -0.707107 0.000000 -0.707107
vn -0.707107 0.000000 -0.707107
vn -0.707107 0.000000 -0.707107
vn -0.258819 0.000000 -0.965926
vn -0.258819 0.000000 -0.965926
vn -0.258819 0.000000 -0.965926
vn -0.258819 0.000000 -0.965926
vn 0.258819 0.000000 -0.965926
vn 0.258819 0.000000 -0.965926
vn 0.258819 0.000000 -0.965926
vn 0.258819 0.000000 -0.965926
vn 0.707107 0.000000 -0.707107
vn 0.707107 0.000000 -0.707107
vn 0.707107 0.000000 -0.707107
vn 0.707107 0.000000 -0.707107
vn 0.505061 -0.852408 -0.135331
vn 0.505061 -0.852408 -0.135331
vn 0.505061 -0.852408 -0.135331
vn 0.505061 -0.852408 -0.135331
vn -0.704036 0.684651 0.188645
vn -0.704036 0.684651 0.188645
vn -0.704036 0.684651 0.188645
vn -0.704036 0.684651 0.188645
vn 0.505061 -0.852408 0.135331
vn 0.505061 -0.852408 0.135331
vn 0.505061 -0.852408 0.135331
vn 0.505061 -0.852408 0.135331
vn -0.704036 0.684651 -0.188645
vn -0.704036 0.684651 -0.188645
vn -0.704036 0.684651 -0.188645
vn -0.704036 0.684651 -0.188645
vn 0.369730 -0.852408 0.369730
vn 0.369730 -0.852408 0.369730
vn 0.369730 -0.852408 0.369730
vn 0.369730 -0.852408 0.369730
vn -0.515390 0.684651 -0.515390
vn -0.515390 0.684651 -0.515390
vn -0.515390 0.684651 -0.515390
vn -0.515390 0.684651 -0.515390
vn 0.135331 -0.852408 0.505061
vn 0.135331 -0.852408 0.505061
vn 0.135331 -0.852408 0.505061
vn 0.135331 -0.852408 0.505061
vn -0.188646 0.684651 -0.704036
vn -0.188646 0.684651 -0.704036
vn -0.188646 0.684651 -0.704036
vn -0.188646 0.684651 -0.704036
vn -0.135331 -0.852408 0.505061
vn -0.135331 -0.852408 0.505061
vn -0.135331 -0.852408 0.505061
vn -0.135331 -0.852408 0.505061
vn 0.188646 0.684651 -0.704036
vn 0.188646 0.684651 -0.704036
vn 0.188645 0.684651 -0.704036
vn 0.188646 0.684651 -0.704036
vn -0.369730 -0.852408 0.369730
vn -0.369730 -0.852408 0.369730
vn -0.369730 -0.852408 0.369730
vn -0.369730 -0.852408 0.369730
vn 0.515390 0.684651 -0.515390
vn 0.515390 0.684651 -0.515390
vn 0.515390 0.684651 -0.515390
vn 0.515390 0.684651 -0.515390
vn -0.505061 -0.852408 0.135331
vn -0.505061 -0.852408 0.135331
vn -0.505061 -0.852408 0.135331
vn -0.505061 -0.852408 0.135331
vn 0.704036 0.684651 -0.188645
vn 0.704036 0.684651 -0.188645
vn 0.704036 0.684651 -0.188645
vn 0.704036 0.684651 -0.188645
vn -0.505061 -0.852408 -0.135331
vn -0.505061 -0.852408 -0.135331
vn -0.505061 -0.852408 -0.135331
vn -0.505061 -0.852408 -0.135331
vn 0.704036 0.684651 0.188645
vn 0.704036 0.684651 0.188645
vn 0.704036 0.684651 0.188645
vn 0.704036 0.684651 0.188645
vn -0.369730 -0.852408 -0.369730
vn -0.369730 -0.852408 -0.369730
vn -0.369730 -0.852408 -0.369730
vn -0.369730 -0.852408 -0.369730
vn 0.515390 0.684651 0.515390
vn 0.515390 0.684651 0.515390
vn 0.515390 0.684651 0.515390
vn 0.515390 0.684651 0.515390
vn -0.135331 -0.852408 -0.505061
vn -0.135331 -0.852408 -0.505061
vn -0.135331 -0.852408 -0.505061
vn -0.135331 -0.852408 -0.505061
vn 0.188646 0.684651 0.704036
vn 0.188646 0.684651 0.704036
vn 0.188646 0.684651 0.704036
vn 0.188646 0.684651 0.704036
vn 0.135331 -0.852408 -0.505061
vn 0.135331 -0.852408 -0.505061
vn 0.135331 -0.852408 -0.505061
vn 0.135331 -0.852408 -0.505061
vn -0.188646 0.684651 0.704036
vn -0.188646 0.684651 0.704036
vn -0.188645 0.684651 0.704036
vn -0.188646 0.684651 0.704036
vn 0.369730 -0.852408 -0.369730
vn 0.369730 -0.852408 -0.369730
vn 0.369730 -0.852408 -0.369730
vn 0.369730 -0.852408 -0.369730
vn -0.515390 0.684651 0.515390
vn -0.515390 0.684651 0.515390
vn -0.515390 0.684651 0.515390
vn -0.515390 0.684651 0.515390
vn 0.000000 -1.000000 -0.000000
vn 0.000000 -1.000000 0.000000
vn 0.000000 -1.000000 0.000000
vn 0.000000 -1.000000 0.000000
vn 0.000000 -1.000000 0.000000
vn 0.000000 -1.000000 0.000000
vn 0.000000 -1.000000 0.000000
vn 0.000000 -1.000000 0.000000
vn 0.000000 -1.000000 -0.000000
s 1
g pCone1
usemtl initialShadingGroup
f 84/97/1 110/123/2 82/95/3 83/96/4
s off
f 1/13/5 2/14/6 13/26/7
f 2/14/8 3/15/9 13/26/10
f 3/15/11 4/16/12 13/26/13
f 4/16/14 5/17/15 13/26/16
f 5/17/17 6/18/18 13/26/19
f 6/18/20 7/19/21 13/26/22
f 7/19/23 8/20/24 13/26/25
f 8/20/26 9/21/27 13/26/28
f 9/21/29 10/22/30 13/26/31
f 10/22/32 11/23/33 13/26/34
f 11/23/35 12/24/36 13/26/37
f 12/24/38 1/25/39 13/26/40
f 1/1/41 12/12/42 14/28/43 15/27/44
f 12/12/45 11/11/46 16/29/47 14/28/48
f 11/11/49 10/10/50 17/30/51 16/29/52
f 10/10/53 9/9/54 18/31/55 17/30/56
f 9/9/57 8/8/58 19/32/59 18/31/60
f 8/8/61 7/7/62 20/33/63 19/32/64
f 7/7/65 6/6/66 21/34/67 20/33/68
f 6/6/69 5/5/70 22/35/71 21/34/72
f 5/5/73 4/4/74 23/36/75 22/35/76
f 4/4/77 3/3/78 24/37/79 23/36/80
f 3/3/81 2/2/82 25/38/83 24/37/84
f 2/2/85 1/1/86 15/27/87 25/38/88
f 15/27/89 14/28/90 26/40/91 27/39/92
f 14/28/93 16/29/94 28/41/95 26/40/96
f 16/29/97 17/30/98 29/42/99 28/41/100
f 17/30/101 18/31/102 30/43/103 29/42/104
f 18/31/105 19/32/106 31/44/107 30/43/108
f 19/32/109 20/33/110 32/45/111 31/44/112
f 20/33/113 21/34/114 33/46/115 32/45/116
f 21/34/117 22/35/118 34/47/119 33/46/120
f 22/35/121 23/36/122 35/48/123 34/47/124
f 23/36/125 24/37/126 36/49/127 35/48/128
f 24/37/129 25/38/130 37/50/131 36/49/132
f 25/38/133 15/27/134 27/39/135 37/50/136
f 27/39/137 26/40/138 38/52/139 39/51/140
f 26/40/141 28/41/142 40/53/143 38/52/144
f 28/41/145 29/42/146 41/54/147 40/53/148
f 29/42/149 30/43/150 42/55/151 41/54/152
f 30/43/153 31/44/154 43/56/155 42/55/156
f 31/44/157 32/45/158 44/57/159 43/56/160
f 32/45/161 33/46/162 45/58/163 44/57/164
f 33/46/165 34/47/166 46/59/167 45/58/168
f 34/47/169 35/48/170 47/60/171 46/59/172
f 35/48/173 36/49/174 48/61/175 47/60/176
f 36/49/177 37/50/178 49/62/179 48/61/180
f 37/50/181 27/39/182 39/51/183 49/62/184
f 39/51/185 38/52/186 50/64/187 51/63/188
f 38/52/189 40/53/190 52/65/191 50/64/192
f 40/53/193 41/54/194 53/66/195 52/65/196
f 41/54/197 42/55/198 54/67/199 53/66/200
f 42/55/201 43/56/202 55/68/203 54/67/204
f 43/56/205 44/57/206 56/69/207 55/68/208
f 44/57/209 45/58/210 57/70/211 56/69/212
f 45/58/213 46/59/214 58/71/215 57/70/216
f 46/59/217 47/60/218 59/72/219 58/71/220
f 47/60/221 48/61/222 60/73/223 59/72/224
f 48/61/225 49/62/226 61/74/227 60/73/228
f 49/62/229 39/51/230 51/63/231 61/74/232
f 87/99/233 86/100/234 88/101/235 89/102/236
f 86/100/237 90/103/238 91/104/239 88/101/240
f 90/103/241 92/105/242 93/106/243 91/104/244
f 92/105/245 94/107/246 95/108/247 93/106/248
f 94/107/249 96/109/250 97/110/251 95/108/252
f 96/109/253 98/111/254 99/112/255 97/110/256
f 98/111/257 100/113/258 101/114/259 99/112/260
f 100/113/261 102/115/262 103/116/263 101/114/264
f 102/115/265 104/117/266 105/118/267 103/116/268
f 104/117/269 106/119/270 107/120/271 105/118/272
f 106/119/273 108/121/274 109/122/275 107/120/276
f 108/121/277 87/99/278 89/102/279 109/122/280
f 63/75/281 62/76/282 74/88/283 75/87/284
f 62/76/285 64/77/286 76/89/287 74/88/288
f 64/77/289 65/78/290 77/90/291 76/89/292
f 65/78/293 66/79/294 78/91/295 77/90/296
f 66/79/297 67/80/298 79/92/299 78/91/300
f 67/80/301 68/81/302 80/93/303 79/92/304
f 68/81/305 69/82/306 81/94/307 80/93/308
f 69/82/309 70/83/310 82/95/311 81/94/312
f 70/83/313 71/84/314 83/96/315 82/95/316
f 71/84/317 72/85/318 84/97/319 83/96/320
f 72/85/321 73/86/322 85/98/323 84/97/324
f 73/86/325 63/75/326 75/87/327 85/98/328
f 51/63/329 50/64/330 86/100/331 87/99/332
f 62/76/333 63/75/334 89/102/335 88/101/336
f 50/64/337 52/65/338 90/103/339 86/100/340
f 64/77/341 62/76/342 88/101/343 91/104/344
f 52/65/345 53/66/346 92/105/347 90/103/348
f 65/78/349 64/77/350 91/104/351 93/106/352
f 53/66/353 54/67/354 94/107/355 92/105/356
f 66/79/357 65/78/358 93/106/359 95/108/360
f 54/67/361 55/68/362 96/109/363 94/107/364
f 67/80/365 66/79/366 95/108/367 97/110/368
f 55/68/369 56/69/370 98/111/371 96/109/372
f 68/81/373 67/80/374 97/110/375 99/112/376
f 56/69/377 57/70/378 100/113/379 98/111/380
f 69/82/381 68/81/382 99/112/383 101/114/384
f 57/70/385 58/71/386 102/115/387 100/113/388
f 70/83/389 69/82/390 101/114/391 103/116/392
f 58/71/393 59/72/394 104/117/395 102/115/396
f 71/84/397 70/83/398 103/116/399 105/118/400
f 59/72/401 60/73/402 106/119/403 104/117/404
f 72/85/405 71/84/406 105/118/407 107/120/408
f 60/73/409 61/74/410 108/121/411 106/119/412
f 73/86/413 72/85/414 107/120/415 109/122/416
f 61/74/417 51/63/418 87/99/419 108/121/420
f 63/75/421 73/86/422 109/122/423 89/102/424
s 1
f 75/87/425 74/88/426 76/89/427 110/123/2
f 110/123/2 76/89/427 77/90/428 78/91/429
f 80/93/430 110/123/2 78/91/429 79/92/431
f 82/95/3 110/123/2 80/93/430 81/94/432
f 75/87/425 110/123/2 84/97/1 85/98/433
